<?xml version="1.0" standalone="no"?>
<!DOCTYPE svg PUBLIC "-//W3C//DTD SVG 20010904//EN"
 "http://www.w3.org/TR/2001/REC-SVG-20010904/DTD/svg10.dtd">
<svg version="1.0" xmlns="http://www.w3.org/2000/svg"
 width="400.000000pt" height="400.000000pt" viewBox="0 0 400.000000 400.000000"
 preserveAspectRatio="xMidYMid meet">
<metadata>
Created by potrace 1.11, written by Peter Selinger 2001-2013
</metadata>
<g transform="translate(0.000000,400.000000) scale(0.100000,-0.100000)"
fill="#000000" stroke="none">
<path d="M1151 2389 c-183 -31 -302 -183 -289 -369 10 -129 76 -225 198 -284
61 -29 72 -31 176 -31 107 0 112 1 187 38 42 21 77 44 77 51 0 11 -56 144 -65
154 -1 1 -30 -12 -64 -30 -143 -73 -281 -12 -281 124 0 69 24 113 77 145 64
37 137 27 220 -33 20 -15 23 -13 66 48 24 35 47 68 50 75 9 15 -65 68 -128 92
-63 23 -155 31 -224 20z"/>
<path d="M1734 2385 c-79 -17 -116 -37 -174 -91 -94 -87 -129 -235 -86 -362
25 -73 100 -153 184 -194 64 -32 72 -33 182 -33 106 0 119 2 174 29 153 75
229 246 182 409 -51 177 -261 287 -462 242z m166 -194 c54 -28 80 -74 80 -140
0 -114 -84 -187 -184 -160 -107 29 -148 153 -83 250 43 64 121 85 187 50z"/>
<path d="M3345 2391 c-53 -15 -80 -28 -113 -56 l-32 -27 0 36 0 36 -100 0
-100 0 0 -460 0 -460 116 0 115 0 -3 149 -3 149 45 -27 c39 -23 56 -26 130
-26 73 0 92 4 136 27 127 67 193 225 164 388 -22 126 -80 210 -169 249 -56 24
-142 34 -186 22z m83 -213 c74 -68 68 -214 -10 -271 -33 -25 -98 -26 -134 -3
-77 51 -85 208 -13 273 44 39 114 40 157 1z"/>
<path d="M518 2377 c-97 -28 -148 -93 -148 -189 0 -96 37 -136 220 -242 30
-17 55 -38 55 -45 0 -41 -117 -24 -188 27 l-42 30 -53 -65 c-31 -37 -51 -71
-48 -79 3 -8 33 -32 66 -54 156 -100 356 -85 444 33 15 20 21 47 24 95 3 59 0
72 -24 109 -27 41 -92 88 -193 140 -63 33 -72 48 -37 64 32 15 106 -2 158 -37
21 -13 39 -24 42 -24 6 0 86 135 86 147 0 15 -69 58 -126 78 -64 23 -177 28
-236 12z"/>
<path d="M2483 2376 c-191 -62 -290 -241 -239 -429 42 -155 174 -247 356 -247
228 0 382 140 382 345 0 138 -67 247 -189 307 -60 29 -77 33 -167 35 -65 2
-116 -2 -143 -11z m210 -198 c35 -25 66 -89 67 -136 0 -73 -57 -145 -126 -158
-48 -9 -118 19 -146 59 -31 43 -36 139 -10 187 40 75 144 98 215 48z"/>
</g>
</svg>
